<svg width="87" height="69" viewBox="0 0 87 69" fill="none" xmlns="http://www.w3.org/2000/svg">
<mask id="path-1-inside-1_1158_346" fill="white">
<path d="M86.2563 0.944824L20.1025 68.9448L0.256348 48.5652"/>
</mask>
<path d="M91.2737 5.82599C93.9695 3.05497 93.9085 -1.37677 91.1375 -4.07256C88.3665 -6.76836 83.9348 -6.70737 81.239 -3.93635L91.2737 5.82599ZM20.1025 68.9448L15.0876 73.8285C16.4057 75.182 18.2149 75.9453 20.1042 75.9448C21.9936 75.9444 23.8025 75.1802 25.1199 73.826L20.1025 68.9448ZM81.239 -3.93635L15.0851 64.0637L25.1199 73.826L91.2737 5.82599L81.239 -3.93635ZM25.1175 64.0611L5.2713 43.6815L-4.7586 53.4489L15.0876 73.8285L25.1175 64.0611Z" fill="#1BB70B" mask="url(#path-1-inside-1_1158_346)"/>
</svg>
