<svg width="126" height="126" viewBox="0 0 126 126" fill="none" xmlns="http://www.w3.org/2000/svg">
<mask id="path-1-inside-1_1158_345" fill="white">
<path d="M124.845 50.897L125.407 56.6195C126.714 70.0336 123.651 83.511 116.673 95.0416C109.695 106.572 99.1767 115.538 86.6867 120.603C74.1968 125.667 60.4044 126.559 47.3665 123.144C34.3286 119.729 22.7438 112.192 14.3398 101.655C5.93588 91.1184 1.16306 78.1474 0.733199 64.6766C0.303338 51.2059 4.23947 37.957 11.9545 26.906C19.6696 15.855 30.7503 7.59402 43.544 3.35504C56.3376 -0.883931 70.1588 -0.873752 82.9462 3.38406"/>
</mask>
<path d="M130.817 50.3114C130.493 47.0135 127.558 44.6022 124.26 44.9256C120.962 45.249 118.551 48.1846 118.874 51.4825L130.817 50.3114ZM125.407 56.6195L131.378 56.0374L131.378 56.034L125.407 56.6195ZM81.0507 9.07678C84.1947 10.1236 87.5921 8.42357 88.6389 5.27957C89.6858 2.13556 87.9857 -1.2618 84.8417 -2.30866L81.0507 9.07678ZM118.874 51.4825L119.435 57.2051L131.378 56.034L130.817 50.3114L118.874 51.4825ZM119.435 57.2016C120.617 69.328 117.847 81.5115 111.539 91.9352L121.806 98.1481C129.454 85.5104 132.811 70.7392 131.378 56.0374L119.435 57.2016ZM111.539 91.9352C105.232 102.359 95.723 110.464 84.4321 115.043L88.9413 126.163C102.63 120.613 114.158 110.786 121.806 98.1481L111.539 91.9352ZM84.4321 115.043C73.1412 119.621 60.6729 120.427 48.8866 117.34L45.8463 128.948C60.1359 132.691 75.2524 131.714 88.9413 126.163L84.4321 115.043ZM48.8866 117.34C37.1004 114.253 26.6277 107.439 19.0305 97.9137L9.64912 105.396C18.8599 116.944 31.5568 125.206 45.8463 128.948L48.8866 117.34ZM19.0305 97.9137C11.4334 88.3886 7.11874 76.6629 6.73015 64.4853L-5.26375 64.868C-4.79262 79.632 0.438387 93.8482 9.64912 105.396L19.0305 97.9137ZM6.73015 64.4853C6.34155 52.3077 9.89981 40.3307 16.8742 30.3406L7.03485 23.4714C-1.42088 35.5833 -5.73488 50.104 -5.26375 64.868L6.73015 64.4853ZM16.8742 30.3406C23.8487 20.3505 33.8656 12.8826 45.4311 9.05055L41.6568 -2.34046C27.635 2.30545 15.4906 11.3595 7.03485 23.4714L16.8742 30.3406ZM45.4311 9.05055C56.9965 5.21852 69.4909 5.22772 81.0507 9.07678L84.8417 -2.30866C70.8267 -6.97522 55.6787 -6.98638 41.6568 -2.34046L45.4311 9.05055Z" fill="#1BB70B" mask="url(#path-1-inside-1_1158_345)"/>
</svg>
