<svg width="38" height="24" viewBox="0 0 38 24" fill="none" xmlns="http://www.w3.org/2000/svg">
<path d="M35.0312 0.3125H2.96875C2.18139 0.3125 1.42628 0.592354 0.869527 1.0905C0.312778 1.58864 0 2.26427 0 2.96875L0 21.0312C0 21.7357 0.312778 22.4114 0.869527 22.9095C1.42628 23.4076 2.18139 23.6875 2.96875 23.6875H35.0312C35.8186 23.6875 36.5737 23.4076 37.1305 22.9095C37.6872 22.4114 38 21.7357 38 21.0312V2.96875C38 2.26427 37.6872 1.58864 37.1305 1.0905C36.5737 0.592354 35.8186 0.3125 35.0312 0.3125ZM2.96875 2.96875H7.71875C7.68573 3.49386 7.5359 4.00779 7.27806 4.48043C7.02022 4.95307 6.65955 5.37491 6.21717 5.72125C5.7748 6.06758 5.25962 6.33144 4.70182 6.49735C4.14402 6.66327 3.55483 6.72792 2.96875 6.6875V2.96875ZM2.96875 21.0312V17.3125C3.55483 17.2721 4.14402 17.3367 4.70182 17.5026C5.25962 17.6686 5.7748 17.9324 6.21717 18.2788C6.65955 18.6251 7.02022 19.0469 7.27806 19.5196C7.5359 19.9922 7.68573 20.5061 7.71875 21.0312H2.96875ZM35.0312 21.0312H30.4C30.4675 19.9901 30.9921 19.015 31.8596 18.3184C32.7271 17.6219 33.8671 17.2603 35.0312 17.3125V21.0312ZM35.0312 14.6562C34.0643 14.6279 33.1005 14.7703 32.1951 15.0754C31.2897 15.3805 30.4604 15.8423 29.7545 16.4344C29.0487 17.0264 28.4802 17.7372 28.0816 18.5259C27.6829 19.3147 27.4619 20.166 27.4312 21.0312H10.5687C10.5381 20.166 10.3171 19.3147 9.91843 18.5259C9.51979 17.7372 8.9513 17.0264 8.24547 16.4344C7.53964 15.8423 6.71031 15.3805 5.8049 15.0754C4.89948 14.7703 3.93573 14.6279 2.96875 14.6562V9.34375C3.93573 9.37211 4.89948 9.22967 5.8049 8.92456C6.71031 8.61946 7.53964 8.15767 8.24547 7.56561C8.9513 6.97355 9.51979 6.26283 9.91843 5.47406C10.3171 4.6853 10.5381 3.83397 10.5687 2.96875H27.4312C27.4619 3.83397 27.6829 4.6853 28.0816 5.47406C28.4802 6.26283 29.0487 6.97355 29.7545 7.56561C30.4604 8.15767 31.2897 8.61946 32.1951 8.92456C33.1005 9.22967 34.0643 9.37211 35.0312 9.34375V14.6562ZM35.0312 6.6875C33.8671 6.73971 32.7271 6.37814 31.8596 5.68157C30.9921 4.98501 30.4675 4.00991 30.4 2.96875H35.0312V6.6875Z" fill="#4ECB71"/>
</svg>
