<svg width="41" height="37" viewBox="0 0 41 37" fill="none" xmlns="http://www.w3.org/2000/svg">
<path d="M20.0497 19.7268C28.6588 19.7268 35.6379 17.2084 35.6379 14.1018C35.6379 10.9952 28.6588 8.47681 20.0497 8.47681C11.4405 8.47681 4.46143 10.9952 4.46143 14.1018C4.46143 17.2084 11.4405 19.7268 20.0497 19.7268Z" stroke="black" stroke-opacity="0.6" stroke-width="2" stroke-linecap="round" stroke-linejoin="round"/>
<path d="M4.75586 14.1018V26.5151C4.75586 27.9869 11.5532 29.175 20.05 29.175C28.5467 29.175 35.3441 27.9869 35.3441 26.5151V14.1018" stroke="black" stroke-opacity="0.6" stroke-width="2" stroke-linecap="round" stroke-linejoin="round"/>
<line y1="-1" x2="8.99948" y2="-1" transform="matrix(-0.0220117 0.999758 -0.999797 -0.0201286 11.6265 19.1625)" stroke="black" stroke-opacity="0.6" stroke-width="2"/>
<line y1="-1" x2="8.99948" y2="-1" transform="matrix(-0.0220117 0.999758 -0.999797 -0.0201286 19.4614 20.1771)" stroke="black" stroke-opacity="0.6" stroke-width="2"/>
<line y1="-1" x2="8.99647" y2="-1" transform="matrix(-0.0655359 0.99785 -0.998201 -0.0599481 28.3389 19.1709)" stroke="black" stroke-opacity="0.6" stroke-width="2"/>
</svg>
