<svg width="33" height="35" viewBox="0 0 33 35" fill="none" xmlns="http://www.w3.org/2000/svg">
<path d="M13.9575 8.54761C13.9575 3.54468 11.2036 0.308838 7.00391 0.308838C2.8042 0.308838 0.050293 3.54468 0.050293 8.54761C0.050293 13.5505 2.8042 16.7864 7.00391 16.7864C11.2036 16.7864 13.9575 13.5505 13.9575 8.54761ZM7.00391 13.9866C4.98438 13.9866 3.72217 11.9211 3.72217 8.54761C3.72217 5.17407 4.98438 3.10864 7.00391 3.10864C9.02344 3.10864 10.2856 5.17407 10.2856 8.54761C10.2856 11.9211 9.02344 13.9866 7.00391 13.9866ZM5.99414 33.8376L17.7441 17.7502L30.1826 0.721924H26.2354L14.7837 16.3733L2.00098 33.8376H5.99414ZM32.1562 25.9431C32.1562 20.9402 29.4023 17.7043 25.2026 17.7043C21.0029 17.7043 18.249 20.9402 18.249 25.9431C18.249 30.946 21.0029 34.1819 25.2026 34.1819C29.4023 34.1819 32.1562 30.946 32.1562 25.9431ZM25.2026 31.3821C23.1831 31.3821 21.9209 29.3167 21.9209 25.9431C21.9209 22.5696 23.1831 20.5042 25.2026 20.5042C27.2222 20.5042 28.4844 22.5696 28.4844 25.9431C28.4844 29.3167 27.2222 31.3821 25.2026 31.3821Z" fill="black" fill-opacity="0.6"/>
</svg>
