<svg width="36" height="26" viewBox="0 0 36 26" fill="none" xmlns="http://www.w3.org/2000/svg">
<path d="M33.5 9.32812C34.0639 9.21005 34.5701 8.90202 34.9341 8.45551C35.2982 8.00901 35.4979 7.45109 35.5 6.875V3C35.5 2.33696 35.2366 1.70107 34.7678 1.23223C34.2989 0.763392 33.663 0.5 33 0.5H3C2.33696 0.5 1.70107 0.763392 1.23223 1.23223C0.763392 1.70107 0.5 2.33696 0.5 3V6.875C0.502082 7.45109 0.70183 8.00901 1.06586 8.45551C1.42989 8.90202 1.93614 9.21005 2.5 9.32812C3.34438 9.50323 4.10261 9.96401 4.64697 10.6328C5.19132 11.3017 5.48853 12.1377 5.48853 13C5.48853 13.8623 5.19132 14.6983 4.64697 15.3672C4.10261 16.036 3.34438 16.4968 2.5 16.6719C1.93614 16.79 1.42989 17.098 1.06586 17.5445C0.70183 17.991 0.502082 18.5489 0.5 19.125V23C0.5 23.663 0.763392 24.2989 1.23223 24.7678C1.70107 25.2366 2.33696 25.5 3 25.5H33C33.663 25.5 34.2989 25.2366 34.7678 24.7678C35.2366 24.2989 35.5 23.663 35.5 23V19.125C35.4979 18.5489 35.2982 17.991 34.9341 17.5445C34.5701 17.098 34.0639 16.79 33.5 16.6719C32.6556 16.4968 31.8974 16.036 31.353 15.3672C30.8087 14.6983 30.5115 13.8623 30.5115 13C30.5115 12.1377 30.8087 11.3017 31.353 10.6328C31.8974 9.96401 32.6556 9.50323 33.5 9.32812ZM3 19.125C4.41286 18.8381 5.68309 18.0716 6.59547 16.9553C7.50785 15.8391 8.00627 14.4417 8.00627 13C8.00627 11.5583 7.50785 10.1609 6.59547 9.04468C5.68309 7.92841 4.41286 7.16189 3 6.875V3H11.75V23H3V19.125ZM33 19.125V23H14.25V3H33V6.875C31.5871 7.16189 30.3169 7.92841 29.4045 9.04468C28.4921 10.1609 27.9937 11.5583 27.9937 13C27.9937 14.4417 28.4921 15.8391 29.4045 16.9553C30.3169 18.0716 31.5871 18.8381 33 19.125Z" fill="#4ECB71"/>
</svg>
